
<svg version="1.0" xmlns="http://www.w3.org/2000/svg">


<path d="M680 1664 c-110 -51 -322 -122 -462 -154 -95 -22 -97 -23 -93 -49 2
-14 6 -73 9 -131 15 -303 107 -595 259 -823 70 -105 219 -260 320 -331 l68
-49 54 38 c66 45 165 133 226 200 60 65 139 174 139 190 0 7 -63 90 -141 184
l-140 172 49 54 c60 65 76 107 70 184 -5 69 -32 112 -91 144 -39 20 -58 22
-249 25 -185 3 -208 2 -208 -12 0 -11 10 -16 34 -16 61 0 61 -1 61 -344 0
-344 -2 -356 -56 -356 -20 0 -29 -4 -27 -12 4 -10 44 -13 158 -13 114 0 154 3
157 13 3 8 -6 12 -29 12 -18 0 -39 4 -47 9 -17 11 -29 88 -30 194 l-1 77 50 0
50 0 48 -67 c26 -36 87 -115 135 -175 49 -60 87 -114 85 -119 -7 -20 -123
-144 -188 -202 -112 -98 -98 -96 -182 -29 -295 235 -466 598 -504 1068 l-6 81
93 23 c119 29 293 88 403 135 l86 37 123 -50 c117 -48 294 -106 405 -132 l52
-12 0 -52 c0 -183 -64 -462 -147 -638 l-45 -97 22 -30 c12 -17 25 -29 29 -26
17 10 94 183 127 281 51 156 94 419 94 574 l0 47 -112 28 c-143 34 -318 92
-439 145 -52 23 -98 43 -104 45 -5 2 -53 -17 -105 -41z m160 -427 c52 -34 73
-78 73 -151 0 -105 -41 -156 -124 -156 -82 0 -79 -7 -79 164 0 84 3 156 7 159
15 16 91 6 123 -16z"/>
<path d="M1610 1292 c0 -5 9 -12 20 -15 19 -5 20 -14 20 -136 0 -108 -3 -133
-15 -137 -34 -13 -11 -24 50 -24 63 0 86 12 45 23 -17 4 -20 14 -20 56 0 68
17 67 71 -4 50 -66 64 -75 118 -75 45 0 55 14 17 24 -21 5 -86 73 -110 114 -4
7 2 24 13 38 28 36 28 95 0 120 -17 15 -40 20 -115 22 -57 3 -94 0 -94 -6z"/>
<path d="M2040 1290 c0 -5 6 -10 14 -10 22 0 26 -23 26 -140 0 -117 -4 -140
-26 -140 -8 0 -14 -5 -14 -10 0 -7 37 -10 103 -8 l102 3 3 33 c2 18 -1 32 -7
32 -6 0 -11 -4 -11 -10 0 -16 -41 -32 -66 -26 -22 6 -24 11 -24 66 0 41 4 60
13 60 29 0 57 -13 57 -26 0 -8 5 -14 10 -14 6 0 10 17 10 38 l0 37 -45 -3 -45
-4 0 51 c0 48 2 51 25 51 14 0 34 -9 45 -20 27 -27 30 -26 30 15 l0 35 -100 0
c-60 0 -100 -4 -100 -10z"/>
<path d="M2395 1269 c-8 -35 2 -52 16 -26 7 12 23 17 54 17 l45 0 0 -107 c0
-120 -6 -153 -26 -153 -8 0 -14 -4 -14 -10 0 -6 30 -10 70 -10 67 0 93 12 50
23 -19 5 -20 14 -20 131 l0 126 36 0 c23 0 42 -6 50 -17 12 -17 13 -16 14 4 0
12 3 28 6 37 5 14 -10 16 -134 16 l-140 0 -7 -31z"/>
<path d="M2851 1172 c-57 -141 -74 -172 -97 -172 -8 0 -12 -4 -9 -10 3 -5 31
-10 61 -10 30 0 54 5 54 10 0 6 -7 10 -15 10 -19 0 -19 1 1 50 15 37 19 40 56
40 36 0 40 -3 55 -37 9 -21 16 -46 15 -55 -1 -15 8 -18 59 -18 33 0 59 4 59
10 0 6 -6 10 -13 10 -25 0 -45 34 -98 168 -30 72 -59 132 -65 132 -7 0 -35
-58 -63 -128z"/>
<path d="M3200 1291 c0 -5 9 -11 20 -14 19 -5 20 -14 20 -137 0 -123 -1 -132
-20 -137 -39 -10 -8 -23 56 -23 62 0 85 12 44 23 -19 5 -20 14 -20 136 0 108
3 133 15 137 34 13 11 24 -50 24 -36 0 -65 -4 -65 -9z"/>
<path d="M3500 1290 c0 -5 9 -10 20 -10 19 0 20 -7 20 -135 0 -111 -3 -137
-15 -141 -39 -15 -6 -24 89 -24 l104 0 5 33 c6 36 -8 59 -17 29 -11 -33 -77
-39 -98 -8 -9 13 -11 208 -2 230 3 9 12 16 20 16 8 0 14 5 14 10 0 6 -30 10
-70 10 -40 0 -70 -4 -70 -10z"/>
<path d="M4032 1277 c-15 -16 -22 -36 -22 -62 0 -34 7 -45 55 -90 64 -59 75
-100 28 -111 -31 -8 -54 4 -68 34 -16 35 -26 25 -23 -20 l3 -43 58 -3 c52 -3
60 0 87 27 51 50 36 107 -45 174 -58 49 -60 82 -5 82 27 0 37 -5 45 -22 15
-35 25 -28 25 17 l0 40 -58 0 c-48 0 -62 -4 -80 -23z"/>
<path d="M4340 1290 c0 -5 9 -10 20 -10 19 0 20 -7 20 -140 0 -118 -2 -140
-15 -140 -8 0 -15 -4 -15 -10 0 -6 40 -10 99 -10 l99 0 7 31 c9 40 2 46 -24
20 -22 -22 -38 -25 -65 -15 -20 8 -24 124 -3 124 29 0 57 -13 57 -26 0 -8 5
-14 10 -14 6 0 10 17 10 39 l0 39 -45 -6 -45 -5 0 53 0 53 32 -7 c18 -3 37
-14 42 -23 8 -16 10 -15 17 2 20 53 17 55 -96 55 -63 0 -105 -4 -105 -10z"/>
<path d="M4792 1280 c-48 -30 -72 -75 -72 -140 0 -106 64 -159 190 -160 36 0
70 4 77 8 16 10 28 82 14 82 -6 0 -11 -4 -11 -10 0 -21 -41 -50 -71 -50 -89 0
-153 89 -129 179 14 51 51 81 102 81 50 0 76 -14 90 -48 11 -27 11 -26 18 18
5 29 3 48 -4 52 -6 4 -47 8 -91 8 -62 0 -87 -4 -113 -20z"/>
<path d="M5150 1291 c0 -5 9 -11 20 -14 18 -5 20 -14 20 -111 0 -60 5 -116 12
-131 34 -75 193 -73 227 2 6 13 11 59 11 102 0 97 8 141 26 141 8 0 14 5 14
10 0 6 -27 10 -60 10 -59 0 -80 -12 -39 -23 20 -5 21 -11 17 -117 -3 -103 -5
-113 -27 -131 -13 -10 -33 -19 -46 -19 -13 0 -33 9 -46 19 -22 18 -24 28 -27
130 -3 94 -1 112 12 117 35 13 13 24 -49 24 -36 0 -65 -4 -65 -9z"/>
<path d="M5630 1292 c0 -5 9 -12 20 -15 19 -5 20 -14 20 -137 0 -123 -1 -132
-20 -137 -39 -10 -8 -23 56 -23 62 0 85 12 44 23 -17 4 -20 14 -20 56 0 66 17
67 65 1 48 -65 70 -80 122 -80 47 0 58 14 19 24 -22 5 -116 103 -116 121 0 4
9 18 20 32 25 32 26 84 1 114 -17 22 -29 24 -115 27 -58 3 -96 0 -96 -6z"/>
<path d="M6060 1290 c0 -5 7 -10 15 -10 13 0 15 -22 15 -140 0 -118 -2 -140
-15 -140 -8 0 -15 -4 -15 -10 0 -6 30 -10 70 -10 40 0 70 4 70 10 0 6 -8 10
-19 10 -23 0 -31 41 -31 155 0 93 7 125 26 125 8 0 14 5 14 10 0 6 -28 10 -65
10 -37 0 -65 -4 -65 -10z"/>
<path d="M6347 1293 c-4 -3 -7 -20 -7 -37 1 -28 2 -29 14 -13 9 11 27 17 55
17 l41 0 0 -125 c0 -102 -3 -127 -15 -131 -35 -14 -10 -24 55 -24 40 0 70 4
70 10 0 6 -9 10 -19 10 -27 0 -31 18 -31 146 l0 114 40 0 c27 0 43 -5 46 -15
11 -27 24 -16 24 20 l0 35 -133 0 c-74 0 -137 -3 -140 -7z"/>
<path d="M6720 1291 c0 -5 8 -11 18 -13 11 -3 40 -40 65 -82 41 -67 47 -84 47
-132 0 -39 -4 -56 -15 -60 -35 -14 -10 -24 55 -24 40 0 70 4 70 10 0 6 -9 10
-20 10 -24 0 -35 35 -27 90 6 46 84 178 109 186 35 11 17 24 -33 24 -45 0 -50
-2 -44 -19 4 -13 -5 -39 -23 -71 l-30 -52 -31 55 c-18 31 -29 62 -25 71 5 14
-3 16 -55 16 -34 0 -61 -4 -61 -9z"/>
<path d="M4215 676 c-39 -17 -55 -37 -62 -79 -6 -40 17 -91 49 -108 24 -13
108 -17 126 -5 7 4 12 19 12 33 l0 27 -20 -22 c-62 -66 -158 40 -104 116 20
29 78 31 96 2 18 -28 28 -25 28 9 0 24 -5 29 -31 35 -44 8 -60 7 -94 -8z"/>
<path d="M5280 597 c0 -59 -4 -97 -12 -105 -9 -9 -2 -12 33 -12 35 1 40 3 27
11 -14 7 -18 23 -18 62 l0 51 63 -62 c34 -34 68 -62 75 -62 8 0 12 25 12 88 0
55 4 92 12 100 9 9 2 12 -32 12 -36 -1 -41 -3 -27 -11 13 -7 17 -23 17 -62 l0
-51 -68 67 c-37 37 -71 67 -75 67 -4 0 -7 -42 -7 -93z"/>
<path d="M5675 682 c-53 -18 -75 -50 -75 -106 0 -46 34 -85 84 -96 57 -13 93
-3 101 27 8 34 -2 42 -21 15 -20 -29 -59 -28 -89 3 -34 33 -37 85 -8 118 22
24 78 22 96 -3 14 -21 15 -21 21 6 4 14 5 28 3 30 -8 8 -93 13 -112 6z"/>
<path d="M3118 673 c8 -3 12 -32 12 -93 0 -61 -4 -90 -12 -93 -7 -3 20 -6 60
-6 70 -1 72 0 72 24 0 27 -15 34 -24 10 -3 -8 -15 -15 -26 -15 -17 0 -20 6
-20 40 0 29 4 40 15 40 9 0 18 -7 21 -15 10 -25 24 -17 24 15 0 27 -2 29 -30
24 -28 -6 -30 -5 -30 25 0 24 4 31 20 31 11 0 20 -4 20 -10 0 -5 5 -10 10 -10
6 0 10 9 10 20 0 18 -6 20 -67 19 -38 0 -62 -3 -55 -6z"/>
<path d="M3383 669 c24 -14 25 -150 1 -173 -14 -15 -11 -16 33 -15 26 0 42 3
36 6 -14 5 -18 73 -5 73 4 0 20 -18 35 -40 24 -33 34 -40 63 -40 l34 0 -41 41
c-29 29 -38 45 -33 57 14 34 16 73 4 87 -9 11 -32 15 -79 15 -50 -1 -62 -3
-48 -11z"/>
<path d="M3641 668 c9 -7 33 -55 54 -106 25 -61 42 -89 48 -83 5 5 27 49 49
98 21 48 44 91 51 95 7 4 -5 8 -26 8 -24 0 -36 -4 -32 -11 4 -5 -3 -35 -16
-66 l-23 -56 -22 59 c-16 42 -19 61 -10 66 6 4 -11 8 -38 8 -41 0 -47 -2 -35
-12z"/>
<path d="M4468 673 c8 -3 12 -32 12 -93 0 -61 -4 -90 -12 -93 -7 -3 20 -6 60
-6 70 -1 72 0 72 24 0 27 -15 34 -24 10 -3 -8 -15 -15 -26 -15 -17 0 -20 6
-20 40 0 42 9 49 33 25 18 -17 27 -10 27 21 0 21 -4 23 -30 18 -28 -6 -30 -5
-30 25 0 24 4 31 20 31 11 0 20 -4 20 -10 0 -5 5 -10 10 -10 6 0 10 9 10 20 0
18 -6 20 -67 19 -38 0 -62 -3 -55 -6z"/>
</g>
</svg>
